<svg xmlns="http://www.w3.org/2000/svg" viewBox="5.5 3.5 201.1 245.0" fill="none" role="img" aria-label="Fluidea">
<defs><linearGradient id="fl-mark" x1="0" y1="9.5" x2="0" y2="242.5" gradientUnits="userSpaceOnUse"><stop offset="0" stop-color="#FFB347"/><stop offset="0.45" stop-color="#FF9A3D"/><stop offset="1" stop-color="#FF6B2C"/></linearGradient></defs>
<g stroke="url(#fl-mark)" stroke-width="13" stroke-linecap="round" stroke-linejoin="round" fill="none">
<path d="M 18.0 236.0 L 18.0 29.0 Q 18.0 16.0 31.0 16.0 L 192.0 16.0"/>
<path d="M 44.0 236.0 L 44.0 55.0 Q 44.0 42.0 57.0 42.0 L 180.0 42.0"/>
<path d="M 70.0 236.0 L 70.0 81.0 Q 70.0 68.0 83.0 68.0 L 160.0 68.0"/>
<path d="M 70.0 119.0 Q 70.0 106.0 83.0 106.0 L 154.0 106.0"/>
<path d="M 70.0 145.0 Q 70.0 132.0 83.0 132.0 L 134.0 132.0"/>
<path d="M 18.0 214.0 Q 18.0 236.0 31.0 236.0 Q 44.0 236.0 44.0 214.0"/>
</g>
<g fill="url(#fl-mark)">
<circle cx="192" cy="16" r="8.6"/>
<circle cx="180" cy="42" r="8.6"/>
<circle cx="160" cy="68" r="8.6"/>
<circle cx="154" cy="106" r="8.6"/>
<circle cx="134" cy="132" r="8.6"/>
<circle cx="31" cy="236" r="8.6"/>
<circle cx="44" cy="92" r="8.6"/>
</g>
</svg>
